<svg xmlns="http://www.w3.org/2000/svg" width="865.76" height="682.89" viewBox="0 0 865.76 682.89"><path d="M842.8,342.44c-.47,12.4-1.47,24.22-2.72,35-4,34.36-10.46,58.48-10.46,58.48-.23.8-.47,1.59-.72,2.39C790.38,565.57,667.17,596.6,667.17,596.6c-22.35,8.45-49.45,14.52-78,18.84-10.67,1.61-21.54,3-32.46,4.14l-5.47.55q-8.06.81-16.09,1.47l-3.6.28c-3.23.26-6.45.51-9.64.72l-3.82.26c-8.19.55-16.3,1-24.24,1.35l-3.21.14q-6.15.25-12.14.46l-.58,0c-3.62.11-7.2.22-10.72.31l-4.29.1c-3.71.08-7.35.14-10.92.2-45.5.65-78.26-1-78.26-1-21.83.45-42.3.07-61.42-.91-135-7-202.45-44.86-202.45-44.86C-.57,521.21,25.46,411.71,25.46,411.71a444.61,444.61,0,0,1,15.87-77C64,260.14,98.16,225.93,98.16,225.93s41.65-45.87,95.13-70.9c2.12-1,4.24-2,6.37-2.92l.12-.05q12.9-5.79,26.16-10.84l.21-.08c11.36-4.33,22.89-8.26,34.49-11.83l.53-.17.31-.09C416.7,81.51,586.4,98.49,586.4,98.49,748,107.46,809,198.11,809,198.11c24.73,33.69,33,78.4,34,120C843.19,326.36,843.11,334.51,842.8,342.44Z" fill="#d2b051"/><path d="M842.8,342.44c-.47,12.4-1.47,24.22-2.72,35-4,34.36-10.46,58.48-10.46,58.48-.23.8-.47,1.59-.72,2.39C790.38,565.57,667.17,596.6,667.17,596.6c-22.35,8.45-49.45,14.52-78,18.84-10.67,1.61-21.54,3-32.46,4.14l-5.47.55q-8.06.81-16.09,1.47l-3.6.28c-3.23.26-6.45.51-9.64.72l-3.82.26c-8.19.55-16.3,1-24.24,1.35l-3.21.14q-6.15.25-12.14.46l-.58,0c-3.62.11-7.2.22-10.72.31l-4.29.1c-3.71.08-7.35.14-10.92.2-45.5.65-78.26-1-78.26-1-21.83.45-42.3.07-61.42-.91-135-7-202.45-44.86-202.45-44.86C-.57,521.21,25.46,411.71,25.46,411.71a444.61,444.61,0,0,1,15.87-77C64,260.14,98.16,225.93,98.16,225.93s41.65-45.87,95.13-70.9c2.12-1,4.24-2,6.37-2.92l.12-.05q12.9-5.79,26.16-10.84l.21-.08c11.36-4.33,22.89-8.26,34.49-11.83l.53-.17.31-.09C416.7,81.51,586.4,98.49,586.4,98.49,748,107.46,809,198.11,809,198.11c24.73,33.69,33,78.4,34,120C843.19,326.36,843.11,334.51,842.8,342.44Z" fill="#fff" opacity="0.7"/><path d="M840.08,377.47c-4,34.36-10.46,58.48-10.46,58.48-.23.8-.47,1.59-.72,2.39L240,536.47,72.79,304.53,199.66,152.11l.12-.05c1-.51,8.84-4.38,26.16-10.84l.21-.08c8.89-3.3,20.27-7.28,34.49-11.83l.53-.17.3-.09h0c.92.5,65.72,34.91,214.53,28.67,0,0,64.43.24,38.49,9.1,0,0-115.68,20.52-156.07,54.62,0,0-33.21,20.65-26,75.39,0,0,9.88,138.22,326,114.38C658.39,411.21,748.68,420.86,840.08,377.47Z" fill="#fff" opacity="0.2"/><path d="M220.84,143.2s41.37,28.87,144.23,34.26c0,0-63.28,16.71-79.38,52.79L197.8,166.82l1.86-14.71S208.91,147.53,220.84,143.2Z" fill="#fff" opacity="0.2"/><path d="M828.9,438.34C790.38,565.57,667.17,596.6,667.17,596.6c-22.35,8.45-49.45,14.52-78,18.84-10.67,1.61-21.54,3-32.46,4.14l-5.47.55q-8.06.81-16.09,1.47l-3.6.28c-3.23.26-6.45.51-9.64.72l-3.82.26c-8.19.55-16.3,1-24.24,1.35l-3.21.14q-6.15.25-12.14.46l-.58,0c-3.62.11-7.2.22-10.72.31l-4.29.1c-3.71.08-7.35.14-10.92.2-45.5.65-78.26-1-78.26-1-21.83.45-42.3.07-61.42-.91-135-7-202.45-44.86-202.45-44.86C-.57,521.21,25.46,411.71,25.46,411.71a444.61,444.61,0,0,1,15.87-77C64,260.14,98.16,225.93,98.16,225.93s41.65-45.87,95.13-70.9c2.12-1,4.24-2,6.37-2.92,0,0,67.82,3.56,81.36,36.38a23,23,0,0,1,1.23,13.65v0a23.64,23.64,0,0,1-7.2,12.5c-7.62,7-21.63,16.38-45.86,22.94l-70.9,18.85s-60.13,14.36-54.75,39.49c0,0-1.79,26.94,81.23,64.63,0,0,81.55,40.57,192.27,59.88h0c8,1.4,16.17,2.68,24.46,3.83,0,0,115.78,16.15,198.35,19.74C599.86,444,735.75,453.3,828.9,438.34Z" fill="#d2b051"/><path d="M828.9,438.34C790.38,565.57,667.17,596.6,667.17,596.6c-22.35,8.45-49.45,14.52-78,18.84-10.67,1.61-21.54,3-32.46,4.14l-5.47.55q-8.06.81-16.09,1.47l-3.6.28c-3.23.26-6.45.51-9.64.72l-3.82.26c-8.19.55-16.3,1-24.24,1.35l-3.21.14q-6.15.25-12.14.46l-.58,0c-3.62.11-7.2.22-10.72.31l-4.29.1c-3.71.08-7.35.14-10.92.2-45.5.65-78.26-1-78.26-1-21.83.45-42.3.07-61.42-.91-135-7-202.45-44.86-202.45-44.86C-.57,521.21,25.46,411.71,25.46,411.71a444.61,444.61,0,0,1,15.87-77C64,260.14,98.16,225.93,98.16,225.93s41.65-45.87,95.13-70.9c2.12-1,4.24-2,6.37-2.92,0,0,67.82,3.56,81.36,36.38a23,23,0,0,1,1.23,13.65v0a23.64,23.64,0,0,1-7.2,12.5l-.49.44c-.37.34-.75.67-1.15,1-7.93,6.78-21.64,15.37-44.22,21.48l-2.17.57-.88.25-27.27,7.24-.88.23-39.7,10.56a176.72,176.72,0,0,0-19.48,6.14l-.87.34c-16.89,6.52-37.66,17.78-34.4,33,0,0-1.32,19.87,50.87,49.34l1.37.76c8.27,4.63,17.87,9.48,29,14.53l.69.33c.22.11.49.25.82.39,7.35,3.54,40.95,19.16,90.44,34.66l1.65.52c14.66,4.56,30.68,9.09,47.82,13.3l1.59.38c15.58,3.79,32.07,7.3,49.26,10.3h0c8,1.4,16.17,2.68,24.46,3.83,0,0,115.78,16.15,198.35,19.74C599.86,444,735.75,453.3,828.9,438.34Z" fill="#fff" opacity="0.5"/><path d="M842.8,342.44c-172.61,72.51-324,24.44-324,24.44l-12.24-24.27C763.8,386.51,839.83,320.93,843,318.08,843.19,326.36,843.11,334.51,842.8,342.44Z" fill="#fff" opacity="0.2"/><path d="M618.71,302.22s-46.67-9.87-42.18,34.1c0,0-37.19-2.69-15.9,44.43,0,0-30.77,26.48,14.1,59.68,0,0-13.28,24.3,2.34,35s30,9.84,47,8c0,0,6.21,32.88,44.84,4.33,0,0,41.32,37,56.58-26.76,0,0,65.52-9,15.26-63.73Z" fill="#d2b051"/><path d="M618.71,302.22s-46.67-9.87-42.18,34.1c0,0-37.19-2.69-15.9,44.43,0,0-30.77,26.48,14.1,59.68,0,0-13.28,24.3,2.34,35s30,9.84,47,8c0,0,6.21,32.88,44.84,4.33,0,0,41.32,37,56.58-26.76,0,0,65.52-9,15.26-63.73Z" opacity="0.2"/><path d="M377,420.45c-110.72-19.31-192.27-59.88-192.27-59.88-83-37.69-81.23-64.63-81.23-64.63-5.38-25.13,54.75-39.49,54.75-39.49l70.9-18.85c24.23-6.56,38.24-16,45.86-22.94a23.64,23.64,0,0,0,7.2-12.5C282.4,204.16,293,354.21,377,420.45Z" fill="#fff"/><path d="M313.37,623.19l-1.1.32c-135-7-202.45-44.86-202.45-44.86-4-2.06-7.76-4.2-11.39-6.39A177.45,177.45,0,0,1,76.89,557C48.46,533.42,34.48,505.75,28,480.91a155.68,155.68,0,0,1-3.38-16.5c-4.5-30.08.88-52.7.88-52.7a444.61,444.61,0,0,1,15.87-77s34.39,21.34,39.77,38.39h0l.09,0,.19-.06.67-.2.31-.09.58-.17.46-.13c.66-.18,1.45-.4,2.36-.63.7-.19,1.48-.38,2.33-.58l.52-.13,1.07-.25c.56-.12,1.13-.26,1.73-.38,19.86-4.33,63.4-9.8,85.39,18.38,0,0,14.79,18.69,17.07,51.18.2,2.73.31,5.56.31,8.48,0,0,32.31,10.77,42.18,49.36,0,0,5.39,32.31-13.46,61C222.91,558.9,314.08,573.5,313.37,623.19Z" fill="#2f2e41"/><g opacity="0.1"><path d="M23.66,423.32s14.79,26.2,49.13,18.52c0,0-10.5,19.61-48.21,22.57C24.58,464.41,21,441.21,23.66,423.32Z"/><path d="M175.49,433.6l-19-6.63A50,50,0,0,0,126,427l-29.62,8.08s7.17-41.21-4.94-64.58c-.6.12-1.17.26-1.73.38l-1,.24c1-.29,17-4.86,31.83-4.13,0,0-11.76,28.59,0,48.34a63.63,63.63,0,0,1,30.61,5.39S169.36,427.67,175.49,433.6Z"/><path d="M47.73,474.46S35.06,483,32.05,494c0,0-2.48-6.74-4.09-13.11C28,480.91,43.07,476.17,47.73,474.46Z"/><path d="M211.92,568.78v3.48l-52.58,26.11s-37.29-11-60.91-26.11c-12.59-15-34.49-49.82-19.15-97.89a51.92,51.92,0,0,1,23.17-29.19,81.34,81.34,0,0,1,45.07-11s14.58,3.65,27.95,7.68h0s-43.37-4.37-65.16,28.23a61,61,0,0,0-9.9,36.76c.86,18.25,8.59,46,44.4,61.95C144.83,568.78,172.2,583.14,211.92,568.78Z"/><path d="M220.84,574.1s-19.55,26-28.48,33.23c0,0-13.71-4.11-17.61-4.73C174.75,602.6,205.32,588.39,220.84,574.1Z"/></g><ellipse cx="147.97" cy="226.38" rx="43.53" ry="11.22" fill="#fff" opacity="0.5"/><path d="M155.78,346l-1.37-.76C141,316.11,138.35,272,137.94,262.93l.87-.34C139.18,271,141.77,316.74,155.78,346Z" fill="#e6e6e6"/><path d="M186.28,361.29c-.33-.14-.6-.28-.82-.39,29.32-46.12,15.67-103.64,12.53-115l.88-.23a179,179,0,0,1,5.84,38C205.65,304.49,203.17,334.65,186.28,361.29Z" fill="#e6e6e6"/><path d="M278.37,396.47l-1.65-.52c-24.4-28.64-36.8-68.68-43-98.13a380.93,380.93,0,0,1-7.61-59.4l.88-.25a382.58,382.58,0,0,0,7.61,59.46C240.85,327.36,253.45,367.92,278.37,396.47Z" fill="#e6e6e6"/><path d="M327.78,410.15l-1.59-.38a215.12,215.12,0,0,1-56.74-130.5,223.68,223.68,0,0,1,4-63.15c.4-.35.78-.68,1.15-1a220.64,220.64,0,0,0-4.21,64.13A214.26,214.26,0,0,0,327.78,410.15Z" fill="#e6e6e6"/><path d="M618.71,302.22s0-23.8,23.16-28.39a17.07,17.07,0,0,1,4.57-.27c5.87.44,20.3,3.35,28.37,20.77,0,0,43.52-32.5,51.6,15.07,0,0,32.31,1.79,16.15,38.59,0,0,45.78,26.93-1.79,49.36,0,0,23.74,30.71,1.55,45.87,0,0-14.12,8-34.76-4.58l-18.85-16.16s39.49,44,14.36,62.83c0,0-18,16.15-37.69-33.21,0,0,1.46,19.75-7.63,30a12.75,12.75,0,0,1-19.73-1c-3.85-5.3-7.29-14.77-6.84-31.67,0,0-16.06,41.21-42.09,11.6,0,0-12.56-11.67,21.54-37.7,0,0-33.61,18.4-44.63-15,0,0-11.91-22.66,30.27-37,0,0-31.33,6.72-31.82-16.84,0,0,1.31-21.76,32.72-11.88C597.17,342.61,572.94,314.78,618.71,302.22Z" fill="#d2b051"/><path d="M618.71,302.22s0-23.8,23.16-28.39a17.07,17.07,0,0,1,4.57-.27c5.87.44,20.3,3.35,28.37,20.77,0,0,43.52-32.5,51.6,15.07,0,0,32.31,1.79,16.15,38.59,0,0,45.78,26.93-1.79,49.36,0,0,23.74,30.71,1.55,45.87,0,0-14.12,8-34.76-4.58l-18.85-16.16s39.49,44,14.36,62.83c0,0-18,16.15-37.69-33.21,0,0,1.46,19.75-7.63,30a12.75,12.75,0,0,1-19.73-1c-3.85-5.3-7.29-14.77-6.84-31.67,0,0-16.06,41.21-42.09,11.6,0,0-12.56-11.67,21.54-37.7,0,0-33.61,18.4-44.63-15,0,0-11.91-22.66,30.27-37,0,0-31.33,6.72-31.82-16.84,0,0,1.31-21.76,32.72-11.88C597.17,342.61,572.94,314.78,618.71,302.22Z" fill="#fff" opacity="0.1"/><path d="M628.58,339.91s5.39-35.9,16.16-26c0,0,9,10.77,10.77,32.31,0,0,29.61-38.6,37.69-30.52,0,0,5.39,8.08-13.46,38.59,0,0,43.08-17,46.67,2.7,0,0,3.59,15.25-34.11,18.84,0,0,34.11,11.67,26,23.34,0,0-7.82,6.28-22.76,0,0,0,17.39,13.4,30.66,3.59a7.85,7.85,0,0,0,2.14-10.07c-2.17-3.92-6.93-9.57-17.22-16.86,0,0,25.35-.78,19-25.52,0,0-.11-19.35-36.91-7.68,0,0,21.54-30.52,2.69-37.7,0,0-14.36-5.38-35.9,26.93,0,0,3.09-23.13-15-29.38a9,9,0,0,0-9.79,2.6C631.33,309.56,627,319.27,628.58,339.91Z" opacity="0.2"/><path d="M636.66,367.74s-14.19-13.19-24.84-2.5a6.4,6.4,0,0,0-1.57,6.58c1.11,3.27,4.27,8.08,13,12.78,0,0-15.06.13-17,12.11a15,15,0,0,0,13,17,44.16,44.16,0,0,0,14.27-.9s-18.18,22.39-5.28,27.71c0,0,13.8,4.42,30-17.12,0,0-5.41,23.17,9.41,23.25,0,0,13.92,3.68,15.72-25.94,0,0-9,26.92-15.26,17.05,0,0-5.72-5.9-4.65-24.94,0,0-25.86,27.63-32.15,20.45,0,0-1.91-11.41,13.41-28.14,0,0-34.95,6.6-34.95-7.76,0,0-.89-9.87,26.93-9.87,0,0-26.93-13.46-17.95-20.64C618.71,366.84,621.4,362.35,636.66,367.74Z" opacity="0.2"/><path d="M441.84,151.48h5.88A1.48,1.48,0,0,1,449.2,153v6.09a0,0,0,0,1,0,0h-8.83a0,0,0,0,1,0,0V153A1.48,1.48,0,0,1,441.84,151.48Z" fill="#d2b051"/><path d="M478.22,276.4s5,12.62,18.92,13.88l5.34-12.74S494.4,272.15,478.22,276.4Z" fill="#d2b051"/><path d="M478.22,276.4s5,12.62,18.92,13.88l5.34-12.74S494.4,272.15,478.22,276.4Z" opacity="0.2"/><path d="M482,63.15s-1.95,16.25,4.7,19.48c0,0,4.39-5.37,7.42-6.75C494.12,75.88,488.12,72.91,482,63.15Z" fill="#d2b051"/><path d="M482,63.15s-1.95,16.25,4.7,19.48c0,0,4.39-5.37,7.42-6.75C494.12,75.88,488.12,72.91,482,63.15Z" opacity="0.2"/><path d="M540.65,140.12c-.28.56-1.16.62-2.06.53a7.71,7.71,0,0,1-3.58-1.42l-7.58-5.41a28.42,28.42,0,0,0-13.66-5,25.22,25.22,0,0,0-5.27-.06,15.14,15.14,0,0,0-5-7h0a5.58,5.58,0,0,0-1.29-.74l1.48-22.45,18.71-7.69,8.83,3.79,1.9,22.48A35.08,35.08,0,0,0,540.56,140Z" fill="#f9b499"/><path d="M513.77,128.83a25.22,25.22,0,0,0-5.27-.06,15.14,15.14,0,0,0-5-7h0s5-1.85,8.81-8.16C512.29,113.63,510.22,123.85,513.77,128.83Z" fill="#f7a48b"/><path d="M523.94,101.44s-3.41,20.75,10.14,25.3c0,0-1.61-3.47-1-9.56Z" fill="#f7a48b"/><path d="M558.49,218l-15,61c-13.24,6.7-37.56,0-37.56,0-13.88-6.31-27.76-2.52-27.76-2.52l8.83-39.12,12.62-15.14-8.83-77c1.26-12.62,17.66-16.4,17.66-16.4a25.22,25.22,0,0,1,5.27.06,28.42,28.42,0,0,1,13.66,5l7.58,5.41a7.71,7.71,0,0,0,3.58,1.42c.9.09,1.78,0,2.06-.53Z" fill="#d2b051"/><path d="M485.23,245.35l1.82-8.07L525.64,234s11.31,4.2,28,3.74l-10.1,41.18s-9.65,6.7-37.56,0C506,278.92,522.52,250.89,485.23,245.35Z" opacity="0.2"/><path d="M604.71,540.12a9.82,9.82,0,0,1-2.19,1.32,11.74,11.74,0,0,1-6.58.9l-15.52-2.22c-.3,0-.6-.06-.9-.11-13-1.93-14.24-18.82-14.24-18.82l-1-3.68-25.48-92.22-11-37.09-2.86-9.59c-2.2,2.21-10.89,14.33-17.71,24h0c-4.86,6.91-8.77,12.56-8.77,12.56-6.31,8.83-2.53,25.24-2.53,25.24L506,516.15A14.64,14.64,0,0,1,500.05,528a27.11,27.11,0,0,1-8,4.24,33.65,33.65,0,0,1-6.24,1.55,18.87,18.87,0,0,1-9.38-1.26C461.28,526.28,456.77,501,456.77,501c-7.57-44.16-12.62-68.13-12.62-68.13-5-32.81,2.52-40.38,2.52-40.38L458,374.82c6.33-10.86,26.47-56.21,37.32-81h0c4.28-9.75,7.12-16.3,7.12-16.3,20.48,7.44,41.06,1.37,41.06,1.37l33.1,17.67c2.47,6.59,5.47,22.31,7.27,32.43,1,5.4,1.56,9.21,1.56,9.21L588,384.92l7.88,50.52,13.58,87C610.71,532.55,607.87,537.6,604.71,540.12Z" fill="#2f2e41"/><path d="M495.88,440.44,506,516.15c0,9.53-8,14.06-14,16.11,4.05-14.62-4.32-54.65-7.56-69-.66-2.93-1.51-5.79-2.43-8.64a60.93,60.93,0,0,1-3-21.14,8.29,8.29,0,0,1,3.39-6.24c8.15-6.12,24.18-24,24.76-24.63-4.86,6.91-8.77,12.56-8.77,12.56C492.1,424,495.88,440.44,495.88,440.44Z" opacity="0.2"/><polygon points="502.06 557.78 483.26 557.78 483.25 557.7 480.88 542.47 500.46 542.47 501.84 555.65 502.06 557.78" fill="#f9b499"/><path d="M509.14,576.08a38.07,38.07,0,0,0-16.06,2.15,46.23,46.23,0,0,0-14,7.82c-12.9,9.68-36.93,9.89-41.55,9.84a.71.71,0,0,1-.71-.79c.95-8.58,5-10.48,7.61-10.77a32.41,32.41,0,0,0,9-2.12A54.53,54.53,0,0,0,474,566.71a25.31,25.31,0,0,0,3.7-6.34c2.4-5.66,5.44-2.66,5.44-2.66h.11v.09h18.81l-.23-2.14h.09C508.1,553.66,509.14,576.08,509.14,576.08Z" fill="#d2b051"/><path d="M498.41,584.28c-7.57-1.26-9.53,2.55-9.53,2.55-7,7.61-24.11,10.59-24.11,10.59l-22.36,2.31c-8,.3-5.62-4.63-5.62-4.63a.71.71,0,0,0,.71.79c4.62.05,28.65-.16,41.55-9.84,0,0,13.07-11.51,30.09-10C509.79,586.81,498.41,584.28,498.41,584.28Z" fill="#2f2e41"/><path d="M509.14,576.08a38.07,38.07,0,0,0-16.06,2.15c4.54-6.49,4.88-16.1,4.77-20.44h4.22l-.23-2.14h.09C508.1,553.66,509.14,576.08,509.14,576.08Z" opacity="0.2"/><path d="M602.14,548.65v6.86c-4.77,2.78-20.45,3.4-20.45,3.4V547.69Z" fill="#f9b499"/><path d="M609.75,573.91c.31,6-15.45,6.59-15.45,6.59-10.09,0-25.23,3.78-25.23,3.78-4.1,1-11.33,1.43-18.46,1.54h0c-10.42.17-20.64-.27-20.64-.27,0-13.88,18.93-12.62,18.93-12.62,10.43.87,19.08-4.26,23.43-7.52a17.18,17.18,0,0,0,4.06-4.56c2.26-3.54,5-2.14,5.28-2l0,0s15.68-.62,20.45-3.4v-1c2.8-2,3.52,2,3.52,2Z" fill="#d2b051"/><path d="M608.6,585.86l-12.34,2c-5.62,1-7.22-.4-7.22-.4-5.26-3.16-13.28,0-13.28,0-2.16,1.89-9.13,1.89-9.13,1.89H531.21c-2.52,0-1.26-3.78-1.26-3.78s29,1.26,39.12-1.27c0,0,15.14-3.78,25.23-3.78,0,0,15.76-.56,15.45-6.59L612,580.5C613.23,585.55,608.6,585.86,608.6,585.86Z" fill="#2f2e41"/><path d="M581.69,558.91s-13,17.08-31.08,26.91h0c-10.42.17-20.64-.27-20.64-.27,0-13.88,18.93-12.62,18.93-12.62,10.43.87,19.08-4.26,23.43-7.52a17.18,17.18,0,0,0,4.06-4.56c2.26-3.54,5-2.14,5.28-2Z" opacity="0.2"/><path d="M604.71,540.12a9.82,9.82,0,0,1-2.19,1.32,11.74,11.74,0,0,1-6.58.9l-15.52-2.22c-.3,0-.6-.06-.9-.11-13-1.93-14.24-18.82-14.24-18.82l-1-3.68s28.78,30.18,30-27.86l1.57-54.21,13.58,87C610.71,532.55,607.87,537.6,604.71,540.12Z" opacity="0.2"/><path d="M583.91,329c-11.95,4-21.15,19.3-21.15,19.3C555.19,360.94,546.35,366,546.35,366c-8.83,6.31-18.59,22.21-18.59,22.21l-2.86-9.59c24-26.5,31.55-42.9,31.55-42.9,11.27-33.81-60-41.73-61.09-41.86,4.28-9.75,7.12-16.3,7.12-16.3,20.48,7.44,41.06,1.37,41.06,1.37l33.1,17.67C579.11,303.18,582.11,318.9,583.91,329Z" opacity="0.2"/><path d="M565.28,308c1.44,13.89-3.74,28.79-14.64,37.78,1.12-1.3,2.45-2.52,3.47-3.9,7.72-9.42,11.26-21.81,11.17-33.88Z" opacity="0.2"/><path d="M632.61,190.61c-6.5,14.5-3,26.48-3,26.48,1.27,27.76-13.88,51.74-13.88,51.74a40.58,40.58,0,0,0-5.42,13.88,30.29,30.29,0,0,1-3.19,8.68,28.33,28.33,0,0,1-4.43,5.92,25.3,25.3,0,0,1-10.93,6.85c-20.19,8.83-38.13-.3-38.13-.3l-14-8.91h0l-3.37-2.15c-13.88-7.57-13.88-39.11-13.88-39.11l-8.72-9.34a14.23,14.23,0,0,0,7.76-2.89l4.66,9.62a15.42,15.42,0,0,0,2.41-2.1h0c5.12-5.43,9.08-15.95,11.68-24.76a102.92,102.92,0,0,0,3.31-15.51,105.93,105.93,0,0,0,.88-17.72c-.63-19.2-3.71-41.22-3.71-41.22-32.2-14.32-46.53-12.46-46.53-12.46,5.8-6.61,14.38-8.53,14.38-8.53a27.07,27.07,0,0,1,20.32,6l6.19,4.42c3.8,2.89,5.64.89,5.64.89,3.13-3.78,4.44-4.15,4.44-4.15,11.36,19.84,37.86,35.7,37.86,35.7,1.15.59,2.29,1.15,3.45,1.67,28.06,12.51,57.66,1.16,57.66,1.16A52.53,52.53,0,0,0,632.61,190.61Z" fill="#d2b051"/><path d="M632.61,190.61c-6.5,14.5-3,26.48-3,26.48,1.27,27.76-13.88,51.74-13.88,51.74a40.58,40.58,0,0,0-5.42,13.88,30.29,30.29,0,0,1-3.19,8.68,28.33,28.33,0,0,1-4.43,5.92,25.3,25.3,0,0,1-10.93,6.85c-20.19,8.83-38.13-.3-38.13-.3l-14-8.91h0l-3.37-2.15c-13.88-7.57-13.88-39.11-13.88-39.11l-8.72-9.34a14.23,14.23,0,0,0,7.76-2.89l4.66,9.62a15.42,15.42,0,0,0,2.41-2.1h0c5.12-5.43,9.08-15.95,11.68-24.76a102.92,102.92,0,0,0,3.31-15.51,105.93,105.93,0,0,0,.88-17.72c-.63-19.2-3.71-41.22-3.71-41.22-32.2-14.32-46.53-12.46-46.53-12.46,5.8-6.61,14.38-8.53,14.38-8.53a27.07,27.07,0,0,1,20.32,6l6.19,4.42c3.8,2.89,5.64.89,5.64.89,3.13-3.78,4.44-4.15,4.44-4.15,11.36,19.84,37.86,35.7,37.86,35.7,1.15.59,2.29,1.15,3.45,1.67,28.06,12.51,57.66,1.16,57.66,1.16A52.53,52.53,0,0,0,632.61,190.61Z" fill="#fff" opacity="0.2"/><path d="M574.11,226.29v42.57a4.4,4.4,0,0,1-1.8,3.59c-4.28,3.08-16.07,8.35-34.79-7.41,0,0-8-8.16-9-16.06h0c5.12-5.43,9.08-15.95,11.68-24.76a102.92,102.92,0,0,0,3.31-15.51,48.43,48.43,0,0,0,27.84,14.43A3.18,3.18,0,0,1,574.11,226.29Z" fill="#fff" opacity="0.3"/><path d="M571.3,273.12c-.33.44-7.12,9.24-22.16,4.43,0,0-12.88-4.94-15.4-12.51,0,0-2.33-6.28-4.79-2.09a7.75,7.75,0,0,0-.89,5.13c.88,5.57,3.83,20.09,11.57,26.87l-3.37-2.15c-13.88-7.57-13.88-39.11-13.88-39.11l-8.72-9.34a14.23,14.23,0,0,0,7.76-2.89l4.66,9.62a15.42,15.42,0,0,0,2.41-2.1c.09.56,2.5,15.36,19.48,23.21C548,272.19,560.93,279.92,571.3,273.12Z" fill="#fff" opacity="0.2"/><path d="M583.91,275.51s-7,30.52-25.42,30.22c0,0,9.77,3.23,19,2.09C577.5,307.82,581.08,288.51,583.91,275.51Z" fill="#fff" opacity="0.2"/><path d="M629.63,217.09c1.27,27.76-13.88,51.74-13.88,51.74a40.58,40.58,0,0,0-5.42,13.88,30.29,30.29,0,0,1-3.19,8.68c-11.88,8.74-17.88,5.2-17.88,5.2-10.1-3.79-8.84-6.31-3.7-28.38.06-.25.11-.49.16-.73a75.76,75.76,0,0,0-1.51-39c-8.83-16.4,1.26-42.9,1.26-42.9a54.67,54.67,0,0,0,.93-12.21c4.75,6.87,13.28,9.55,18.62,10.58a27,27,0,0,0,7.18.31c10.58-.79,20.14,6.17,20.41,6.38C626.11,205.11,629.63,217.09,629.63,217.09Z" fill="#d2b051"/><path d="M542.44,164.76l24.1,15.74s7.57,3.79,10.1-3.78c0,0-7.27-1.31-18.15-8.86l-17.2-13.16Z" fill="#2f2e41"/><path d="M547.32,212.32s2.41-32.55,5.14-41l4.89,3.2-1,43.82S549.54,215.11,547.32,212.32Z" fill="#2f2e41"/><path d="M443.17,156.53h4.48a7.86,7.86,0,0,1,7.86,7.86v53.71a2.79,2.79,0,0,1-2.79,2.79H438.1a2.79,2.79,0,0,1-2.79-2.79V164.38A7.86,7.86,0,0,1,443.17,156.53Z" fill="#2f2e41"/><path d="M646.67,166.52c-.06,2.75.1,7-2.61,8-32.27,11.66-57.66-1.16-57.66-1.16-29.34-16-41.31-37.37-41.31-37.37a7.5,7.5,0,0,1,2.22-3c4.32-3.92,16.62-9.71,50.51-4.32,0,0,34,4.45,45.93,26.37a24.11,24.11,0,0,1,1.43,3.1A22.26,22.26,0,0,1,646.67,166.52Z" fill="#d2b051"/><path d="M646.67,166.52c-.06,2.75.1,7-2.61,8-32.27,11.66-57.66-1.16-57.66-1.16-29.34-16-41.31-37.37-41.31-37.37a7.5,7.5,0,0,1,2.22-3s15.45,29.85,57.09,31.11c0,0,24.21,1.1,40.78-6A22.26,22.26,0,0,1,646.67,166.52Z" opacity="0.2"/><ellipse cx="499.78" cy="98.62" rx="25.87" ry="18.42" transform="translate(310.77 571.68) rotate(-79.38)" fill="#f9b499"/><path d="M506.21,79.79c1.46,1.52,9.47,10.34,9.05,21.52l8.68.13s1,18.5,14.84,16c0,0,5.05,0,6.31-7.57,0,0-13.39-22.71-22.46-30.28a57.21,57.21,0,0,1-16.35.11C506.2,79.66,506.15,79.73,506.21,79.79Z" fill="#2f2e41"/><path d="M558.38,91.7c-.85,4.93-6,8-6,8-5.27,2.52-7.33,10.09-7.33,10.09-11.2-19-22.47-30.28-22.47-30.28C490.07,84.6,482,63.15,482,63.15c7.57,1.27,20.19,2.53,20.19,2.53L513.35,59a10.07,10.07,0,0,1,3.5-1.33c22.93-4,39.6,26.94,39.6,26.94A9.31,9.31,0,0,1,558.38,91.7Z" fill="#d2b051"/><path d="M558.38,91.7c-.85,4.93-6,8-6,8-5.27,2.52-7.33,10.09-7.33,10.09-11.2-19-22.47-30.28-22.47-30.28a96.48,96.48,0,0,0-20.43-13.88c17.67-2.53,38.31,22.08,38.31,22.08A14.4,14.4,0,0,0,558.38,91.7Z" opacity="0.2"/><ellipse cx="519.86" cy="99.75" rx="5.68" ry="4.42" transform="translate(228.59 541.75) rotate(-67.48)" fill="#f9b499"/><path d="M525.64,181.44l.49,50.95a10.66,10.66,0,0,1-3.14,7.75c-3.22,3.09-8.9,6.22-17.25,2.65a28.29,28.29,0,0,0-8.91-2.11c-7.19-.61-20.09-2.61-29-9.18a12.65,12.65,0,0,0-5.37-2.32l-2.18-.36a3.09,3.09,0,0,1-2.57-2.68c-.77-6.24-1.69-22.93,10.55-21.22L475.1,207l17,5.07a358.28,358.28,0,0,1-4.6-37.55v0c-1-16.43-.13-32.5,6.62-34.71,0,0,32-2.17,33.31,21.8A49,49,0,0,1,525.64,181.44Z" fill="#d2b051"/><path d="M475.1,207l17,5.07a358.28,358.28,0,0,1-4.6-37.55L495.34,219a1.27,1.27,0,0,1-2,1.25Z" opacity="0.2"/><path d="M457.3,220.54S429,210.79,431.53,202c0,0-1.26-3.78,1.26-6.31,0,0-3.78-3.78,1.26-6.31,0,0-1.85-5.56,1.59-7.15a3.69,3.69,0,0,1,3.38.28l6.89,4L453,190.6s2.52,1.26,1.26-2.53c0,0-3-3.76-2.05-6.62a3.43,3.43,0,0,1,.77-1.28,1.94,1.94,0,0,1,2.56-.15c1.84,1.42,5,5,5,13.1,0,0,.59,9.36,2.83,12.25C463.38,205.37,456.71,208.43,457.3,220.54Z" fill="#f9b499"/><path d="M431.53,202a17.47,17.47,0,0,1,5.05,2.53,17.35,17.35,0,0,1-5.05-2.53Z" fill="#f7a48b"/><path d="M432.79,195.64a13.11,13.11,0,0,1,4.52,1.88,13.11,13.11,0,0,1-4.52-1.88Z" fill="#f7a48b"/><path d="M434.05,189.33a29.7,29.7,0,0,1,6.31,3.79,29.53,29.53,0,0,1-6.31-3.79Z" fill="#f7a48b"/><path d="M456.55,192.05c-4,4-10.64-5.57-10.64-5.57L453,190.6s2.52,1.26,1.26-2.53c0,0-3-3.76-2.05-6.62a15.74,15.74,0,0,0,2.7,5C458.07,189.93,456.55,192.05,456.55,192.05Z" fill="#f7a48b"/><path d="M444.92,215.3s13.32-8.3,17-13.35l1.46,3.42s-6.67,3.06-6.08,15.17C457.3,220.54,452,218.55,444.92,215.3Z" fill="#f7a48b"/><path d="M502.05,544.09a1,1,0,0,1-.94,1.11l-21.29.7a1,1,0,0,1-1-.81l-2.41-12.54a18.87,18.87,0,0,0,9.38,1.26,33.65,33.65,0,0,0,6.24-1.55,27.11,27.11,0,0,0,8-4.24Z" fill="#2f2e41"/><path d="M601.79,552.45l-19.68-2.15a2,2,0,0,1-1.77-1.78l-.74-7.62.82-.78,15.52,2.22a11.74,11.74,0,0,0,6.58-.9l1.45,8.71A2,2,0,0,1,601.79,552.45Z" fill="#2f2e41"/><path d="M194.19,448.51c-3.9-1.95-11.1-4.37-18.7-6.67h0c-13.37-4-27.95-7.68-27.95-7.68a81.34,81.34,0,0,0-45.07,11,51.92,51.92,0,0,0-23.17,29.19c-15.34,48.07,6.56,82.89,19.15,97.89A177.45,177.45,0,0,1,76.89,557c-25-57.72-10.15-94.13-10.15-94.13-13.46,12.57-38.78,18-38.78,18a155.68,155.68,0,0,1-3.38-16.5c81.7-6.56,56.52-91.29,56.52-91.29h0l.09,0,.19-.06.67-.2.31-.09.58-.17.46-.13c.66-.18,1.45-.4,2.36-.63.7-.19,1.48-.38,2.33-.58l.52-.13h0l1-.24c.56-.12,1.13-.26,1.73-.38,12.11,23.37,4.94,64.58,4.94,64.58L126,427a50,50,0,0,1,30.51,0l19,6.63L193.88,440C194.08,442.76,194.19,445.59,194.19,448.51Z" fill="#2f2e41"/><path d="M222.91,558.9S191,596.35,139.2,591.54c0,0,17.91,6.3,35.55,11.06,0,0,38.13-16,58.85-41.5Z" fill="#2f2e41"/><g opacity="0.3"><path d="M194.19,448.51c-3.9-1.95-11.1-4.37-18.7-6.67h0c-13.37-4-27.95-7.68-27.95-7.68a81.34,81.34,0,0,0-45.07,11,51.92,51.92,0,0,0-23.17,29.19c-15.34,48.07,6.56,82.89,19.15,97.89A177.45,177.45,0,0,1,76.89,557c-25-57.72-10.15-94.13-10.15-94.13-13.46,12.57-38.78,18-38.78,18a155.68,155.68,0,0,1-3.38-16.5c81.7-6.56,56.52-91.29,56.52-91.29h0l.09,0,.19-.06.67-.2.31-.09.58-.17.46-.13c.66-.18,1.45-.4,2.36-.63.7-.19,1.48-.38,2.33-.58l.52-.13h0l1-.24c.56-.12,1.13-.26,1.73-.38,12.11,23.37,4.94,64.58,4.94,64.58L126,427a50,50,0,0,1,30.51,0l19,6.63L193.88,440C194.08,442.76,194.19,445.59,194.19,448.51Z"/><path d="M222.91,558.9S191,596.35,139.2,591.54c0,0,17.91,6.3,35.55,11.06,0,0,38.13-16,58.85-41.5Z"/></g><path d="M450.66,577.47l27.22,47.36c-3.62.11-7.2.22-10.72.31l-4.29.1c-3.71.08-7.35.14-10.92.2l-29.9-33.06a86.74,86.74,0,0,1-7.13-9c-26-37.51-13.23-45.71-13.23-45.71C419.3,516.43,450.66,577.47,450.66,577.47Z" fill="#e6e6e6"/><path d="M531.51,621.88c-3.23.26-6.45.51-9.64.72l-3.82.26c-8.19.55-16.3,1-24.24,1.35l-3.21.14q-6.15.25-12.14.46L463,570.07c-13.56-44.38-9.86-72.74-9.86-72.74,2.47-14.8,11.1-29.59,35.76-17.27s17.26,140.57,17.26,140.57c19.73-99.88,28.36-103.58,28.36-103.58,8.63-18.49,23.43-7.39,23.43-7.39C584.4,528.07,537.85,610.89,531.51,621.88Z" fill="#e6e6e6"/><path d="M589.13,615.44c-10.67,1.61-21.54,3-32.46,4.14l-5.47.55q-8.06.81-16.09,1.47c42.48-52.8,56.11-34.26,56.11-34.26C600.29,597.71,597.11,607.33,589.13,615.44Z" fill="#e6e6e6"/><path d="M467.16,625.14l-4.29.1c-20.76-28-47.24-66.15-53-74.48a.65.65,0,0,1,.91-.89C419.56,556.58,450.71,601.16,467.16,625.14Z" opacity="0.2"/><path d="M493.81,624.21l-3.21.14c-5.34-34.41-17.2-112.91-15.29-119.63,0,0,2.29-1.85,6.7,33Z" opacity="0.2"/><path d="M546.14,533.28c-3.08,11.81-15.74,60.11-24.27,89.32l-3.82.26c7.09-26.57,20.59-75.51,27.47-89.8A.33.33,0,0,1,546.14,533.28Z" opacity="0.2"/><path d="M577,600.42c-6,6.17-12.72,12.62-20.3,19.16l-5.47.55c15.43-12.86,21.22-17.25,25.4-20.15A.29.29,0,0,1,577,600.42Z" opacity="0.2"/><path d="M118.8,226.83h56.56s53.83-17.05,35-38.59c0,0-10.35-14.09-42.87,27.51l-1.1-1.49s40.38-68.21,19.74-82.57c0,0-10.77-8.07-17.05,5.39,0,0-6.28,2.69-20.64,75.39,0,0,5.38-93.34-12.57-102.32s-24.23,1.8-26,12.57c0,0-2.69,20.64,7.18,52.95L128.67,217,108,181.06s-22.82-44.43-35.64-28.95c0,0-9.29,6,9.63,33.28a63.68,63.68,0,0,0,5.19,6.52Z" fill="#e6e6e6"/><path d="M78.34,161.61c5,7.27,31.71,45.76,46.93,65.22h2.31S87.81,167.7,79,161A.47.47,0,0,0,78.34,161.61Z" opacity="0.2"/><path d="M138.93,226.83s-14.75-92.44-13-98.73c0,0,1.67-1.34,4.87,24L141,226.83Z" opacity="0.2"/><path d="M153.74,226.83s16.36-63.59,23.33-78.1a.24.24,0,0,1,.46.16c-2.82,10.8-16.62,63.46-21.68,77.94Z" opacity="0.2"/><path d="M163.77,226.83h1.87a230,230,0,0,0,18.68-14.36c5.87-5,11.07-10,15.65-14.7a.21.21,0,0,0-.27-.32C195.43,200.4,188.84,205.51,163.77,226.83Z" opacity="0.2"/></svg>